#!OML:ASF F:\VICON\USERDATA\INSTALL\Justin_Nancy\Justin_Nancy.ASF
:FULLY-SPECIFIED
:DEGREES
50
root 0.136844 15.6515 -26.7953 20.943 4.6046 5.3828
lowerback 17.1785 -1.23775 -5.11733
upperback 3.38978 -2.52804 -0.235419
thorax -5.76646 -1.14131 3.19503
lowerneck -18.1976 -5.56998 -8.72935
upperneck 1.13514 -6.44743 12.8909
head 3.99909 -2.58658 4.8688
rclavicle 3.03395e-014 -8.41108e-015
rhumerus -44.9752 4.67966 -87.9053
rradius 82.6233
rwrist -5.00463
rhand -23.49 22.1259
rfingers 7.12502
rthumb 2.96992 -7.83322
lclavicle 3.03395e-014 -8.41108e-015
lhumerus -29.0571 -6.7747 84.781
lradius 86.6914
lwrist 25.3875
lhand -25.3464 23.9615
lfingers 7.12502
lthumb 1.17698 53.938
rfemur -37.2607 -4.3685 16.8106
rtibia 92.0799
rfoot -2.53004 7.23785
rtoes -14.9713
lfemur -32.4804 2.4031 -24.6695
ltibia 64.8784
lfoot -26.4294 -10.7028
ltoes -23.1867
51
root 0.137245 15.6511 -26.5018 21.0723 4.6641 5.52262
lowerback 17.376 -1.35698 -5.2891
upperback 3.39804 -2.72281 -0.206029
thorax -5.83654 -1.23022 3.37214
lowerneck -18.6824 -5.65639 -8.92477
upperneck 1.0484 -6.49681 13.1148
head 4.06954 -2.58569 4.96266
rclavicle 5.00782e-014 4.89507e-015
rhumerus -47.2384 3.83387 -87.2713
rradius 83.7136
rwrist -7.45714
rhand -24.4407 22.2002
rfingers 7.12502
rthumb 2.05173 -7.7697
lclavicle 5.00782e-014 4.89507e-015
lhumerus -27.7251 -6.99422 85.0825
lradius 89.7749
lwrist 26.1688
lhand -23.3087 20.293
lfingers 7.12502
lthumb 3.14498 50.2496
rfemur -40.7822 -5.1868 16.4505
rtibia 94.4723
rfoot -3.07088 6.55512
rtoes -8.25344
lfemur -30.5169 2.39188 -24.6152
ltibia 63.1941
lfoot -26.7488 -10.7592
ltoes -23.4815
52
root 0.136826 15.6489 -26.1889 21.3232 4.64104 5.60242
lowerback 17.1277 -1.46486 -5.39217
upperback 3.4561 -2.86455 -0.20338
thorax -5.62133 -1.30592 3.45032
lowerneck -18.8165 -5.67181 -8.86861
upperneck 0.554032 -6.48317 13.2039
head 3.94039 -2.57979 4.98379
rclavicle -4.66274e-014 -1.37907e-014
rhumerus -49.5797 3.12348 -86.6632
rradius 85.2102
rwrist -9.82991
rhand -24.8131 22.232
rfingers 7.12502
rthumb 1.6921 -7.74108
lclavicle -4.66274e-014 -1.37907e-014
lhumerus -26.4533 -7.24545 85.371
lradius 93.5052
lwrist 27.0919
lhand -21.1005 18.3632
lfingers 7.12502
lthumb 5.27727 48.2775
rfemur -44.7092 -6.13731 16.3001
rtibia 96.6506
rfoot -3.77999 5.99369
rtoes -6.86495
lfemur -28.5396 2.45503 -24.5623
ltibia 61.4107
lfoot -27.1584 -10.4547
ltoes -24.3896
53
root 0.137203 15.6433 -25.8714 21.6373 4.4341 5.80317
lowerback 16.9426 -1.51024 -5.78158
upperback 3.3759 -2.97857 -0.1152
thorax -5.57023 -1.35572 3.78138
lowerneck -18.8975 -5.58306 -8.83359
upperneck 0.0690676 -6.30833 13.02
head 3.77491 -2.51014 4.93897
rclavicle -1.35174e-014 1.45734e-014
rhumerus -52.1361 2.72509 -85.8735
rradius 87.0342
rwrist -11.662
rhand -24.659 22.6172
rfingers 7.12502
rthumb 1.84088 -7.35463
lclavicle -1.35174e-014 1.45734e-014
lhumerus -25.442 -7.3763 85.8958
lradius 97.4932
lwrist 28.1199
lhand -22.509 20.0825
lfingers 7.12502
lthumb 3.91722 50.0262
rfemur -48.7229 -6.90486 16.0527
rtibia 98.4647
rfoot -4.79539 5.53104
rtoes -9.03777
lfemur -26.5637 2.52606 -24.7147
ltibia 59.6279
lfoot -27.4807 -10.2334
ltoes -24.7712
54
root 0.135841 15.6265 -25.564 21.9405 4.61137 5.91172
lowerback 16.9928 -1.727 -5.91084
upperback 3.14178 -3.28389 0.0905405
thorax -5.79629 -1.48785 4.1458
lowerneck -18.7604 -5.42855 -8.92662
upperneck -0.329209 -6.04239 12.8464
head 3.59784 -2.4004 4.92943
rclavicle 3.71914e-014 -8.79622e-015
rhumerus -54.899 2.65929 -85.0247
rradius 88.9309
rwrist -12.7589
rhand -24.4809 23.5329
rfingers 7.12502
rthumb 2.01293 -6.43733
lclavicle 3.71914e-014 -8.79622e-015
lhumerus -24.6565 -7.43721 86.4667
lradius 101.452
lwrist 29.31
lhand -23.3847 20.4704
lfingers 7.12502
lthumb 3.07156 50.428
rfemur -51.8759 -7.70238 15.9917
rtibia 99.4487
rfoot -6.26709 5.17924
rtoes -8.1659
lfemur -24.6992 2.30836 -24.6271
ltibia 57.8367
lfoot -27.4346 -10.0766
ltoes -25.1821
55
root 0.12767 15.6083 -25.2764 22.717 5.51151 6.4321
lowerback 16.9356 -2.26643 -5.94039
upperback 2.71069 -3.99545 0.279295
thorax -6.13326 -1.80898 4.5209
lowerneck -18.6584 -5.24223 -8.97574
upperneck -0.52346 -5.76036 12.6708
head 3.48574 -2.27666 4.91185
rclavicle -1.46293e-014 -1.25856e-014
rhumerus -57.6042 2.5463 -84.0593
rradius 90.6221
rwrist -12.9175
rhand -23.9071 25.2359
rfingers 7.12502
rthumb 2.56711 -4.72845
lclavicle -1.46293e-014 -1.25856e-014
lhumerus -24.0284 -7.51854 86.9965
lradius 105.515
lwrist 30.3603
lhand -23.5599 19.5086
lfingers 7.12502
lthumb 2.90234 49.4686
rfemur -55.6293 -9.3987 15.8635
rtibia 100.104
rfoot -7.11877 5.26917
rtoes -6.44694
lfemur -23.5619 1.15938 -24.7047
ltibia 56.0128
lfoot -26.7364 -9.93961
ltoes -25.9389
56
root 0.140025 15.6317 -24.9365 22.8318 6.05122 6.1361
lowerback 16.9505 -2.72678 -5.30898
upperback 2.60954 -4.46543 0.617456
thorax -6.21639 -2.04234 4.62731
lowerneck -18.9408 -5.0168 -9.03133
upperneck -0.425588 -5.41769 12.4355
head 3.51159 -2.10778 4.87772
rclavicle -5.43179e-014 1.48654e-014
rhumerus -59.9864 2.82664 -83.1238
rradius 92.2935
rwrist -12.3926
rhand -23.3372 26.4447
rfingers 7.12502
rthumb 3.11745 -3.51221
lclavicle -5.43179e-014 1.48654e-014
lhumerus -23.3878 -7.48178 87.4575
lradius 109.404
lwrist 30.1226
lhand -23.2557 17.8605
lfingers 7.12502
lthumb 3.19618 47.8163
rfemur -58.5066 -10.2403 16.5186
rtibia 100.01
rfoot -7.61504 4.97153
rtoes -6.71194
lfemur -21.3684 0.569888 -24.1004
ltibia 53.8422
lfoot -26.0411 -9.81312
ltoes -26.8763
57
root 0.14381 15.6642 -24.565 23.0413 5.63423 6.24022
lowerback 16.6063 -2.89918 -5.6894
upperback 2.53287 -4.72906 0.831715
thorax -6.03103 -2.16861 5.10078
lowerneck -19.3519 -4.77536 -9.19722
upperneck -0.322163 -5.01849 12.2013
head 3.55538 -1.90765 4.86721
rclavicle -1.45486e-014 1.22253e-014
rhumerus -62.2454 3.42799 -82.2504
rradius 94.1178
rwrist -11.5759
rhand -23.1867 26.6132
rfingers 7.12502
rthumb 3.26277 -3.34162
lclavicle -1.45486e-014 1.22253e-014
lhumerus -22.7808 -7.47997 87.9309
lradius 113.11
lwrist 29.3671
lhand -23.1894 17.0723
lfingers 7.12502
lthumb 3.2602 47.0271
rfemur -61.5091 -10.2231 16.503
rtibia 99.5146
rfoot -8.04063 4.44159
rtoes -7.62532
lfemur -19.0611 0.572227 -24.2408
ltibia 51.3012
lfoot -24.8548 -9.8615
ltoes -27.5681
58
root 0.153522 15.717 -24.1814 23.082 5.32862 6.14582
lowerback 16.5176 -3.03915 -5.60182
upperback 2.45434 -4.88659 0.966932
thorax -6.04273 -2.24458 5.22372
lowerneck -19.699 -4.49616 -9.15957
upperneck -0.324406 -4.60672 11.9164
head 3.54991 -1.70724 4.80913
rclavicle -3.01407e-014 1.15295e-014
rhumerus -64.5623 3.59979 -81.4473
rradius 95.7392
rwrist -10.7252
rhand -23.0522 27.3358
rfingers 7.12502
rthumb 3.39266 -2.61697
lclavicle -3.01407e-014 1.15295e-014
lhumerus -21.9964 -7.90653 88.0335
lradius 116.795
lwrist 29.9059
lhand -22.2417 16.6408
lfingers 7.12502
lthumb 4.17535 46.5796
rfemur -63.9773 -10.0019 16.6372
rtibia 98.4121
rfoot -8.36354 4.02521
rtoes -8.16376
lfemur -16.3089 0.510352 -24.1208
ltibia 48.3902
lfoot -23.338 -9.99268
ltoes -29.2739
59
root 0.162529 15.7686 -23.7788 23.0066 5.10451 6.05104
lowerback 16.4088 -3.13902 -5.36232
upperback 2.432 -4.96839 1.00932
thorax -6.0142 -2.29042 5.14256
lowerneck -19.9674 -4.27107 -9.0423
upperneck -0.250637 -4.30371 11.7125
head 3.57022 -1.55801 4.75348
rclavicle -2.71465e-015 1.12686e-014
rhumerus -66.85 3.51305 -80.6791
rradius 97.1773
rwrist -10.1809
rhand -22.9228 28.1229
rfingers 7.12502
rthumb 3.51769 -1.82784
lclavicle -2.71465e-015 1.12686e-014
lhumerus -21.3926 -8.89305 87.9292
lradius 120.298
lwrist 30.3261
lhand -22.2122 16.6737
lfingers 7.12502
lthumb 4.20387 46.612
rfemur -65.8217 -9.70921 16.7314
rtibia 96.9184
rfoot -8.89524 3.63842
rtoes -8.29051
lfemur -13.1616 0.23441 -23.9018
ltibia 45.304
lfoot -21.4782 -10.3033
ltoes -30.48
60
root 0.167476 15.8212 -23.36 22.9207 4.77721 5.81307
lowerback 16.2097 -3.20642 -5.08591
upperback 2.38356 -4.99693 1.08038
thorax -5.9718 -2.3114 5.05509
lowerneck -20.129 -4.08848 -8.99954
upperneck -0.0952209 -4.06179 11.6099
head 3.61207 -1.43662 4.73688
rclavicle 1.74682e-014 -3.93842e-015
rhumerus -68.9353 3.59738 -80.0085
rradius 98.2765
rwrist -10.2713
rhand -22.7757 28.3326
rfingers 7.12502
rthumb 3.65968 -1.61575
lclavicle 1.74682e-014 -3.93842e-015
lhumerus -21.2373 -10.0212 87.7996
lradius 123.585
lwrist 29.979
lhand -22.7725 15.8062
lfingers 7.12502
lthumb 3.66283 45.7544
rfemur -67.2453 -9.14393 16.8826
rtibia 95.0331
rfoot -9.74186 3.30557
rtoes -9.10629
lfemur -10.2881 -0.0743656 -23.6165
ltibia 42.2622
lfoot -18.8217 -10.8678
ltoes -30.8215
61
root 0.176676 15.8885 -22.9443 22.9795 4.28039 5.47508
lowerback 16.1151 -3.2062 -4.85406
upperback 2.21162 -4.94247 1.32237
thorax -6.1089 -2.28002 5.17463
lowerneck -20.5527 -3.91775 -9.17585
upperneck 0.271192 -3.76705 11.3621
head 3.7503 -1.28807 4.7149
rclavicle -3.17062e-014 -3.29237e-015
rhumerus -70.5571 3.87888 -79.2188
rradius 98.7341
rwrist -10.7082
rhand -22.7819 28.1221
rfingers 7.12502
rthumb 3.65372 -1.82631
lclavicle -3.17062e-014 -3.29237e-015
lhumerus -21.32 -11.0902 87.9546
lradius 126.496
lwrist 28.9343
lhand -21.6949 12.6853
lfingers 7.12502
lthumb 4.70341 42.6131
rfemur -68.6016 -8.39385 17.0904
rtibia 92.7397
rfoot -10.4551 2.97418
rtoes -10.0344
lfemur -7.96675 -0.467096 -23.386
ltibia 39.3641
lfoot -14.7857 -11.8709
ltoes -30.1496
62
root 0.184682 15.9591 -22.5252 23.0625 3.6958 5.38245
lowerback 16.5062 -4.27639 -6.56537
upperback 0.648886 -6.60806 2.9923
thorax -7.41484 -2.92158 8.40682
lowerneck -16.017 -2.12001 -12.3754
upperneck -0.551228 -1.04537 11.437
head 2.54623 -0.0762488 5.48661
rclavicle 4.98453e-014 -1.81888e-014
rhumerus -73.3548 9.94188 -78.1019
rradius 99.2729
rwrist -11.545
rhand -22.909 26.3176
rfingers 7.12502
rthumb 3.53097 -3.63295
lclavicle 4.98453e-014 -1.81888e-014
lhumerus -25.153 -7.52638 89.6449
lradius 129.645
lwrist 26.448
lhand -20.7003 10.1631
lfingers 7.12502
lthumb 5.66375 40.0675
rfemur -69.7208 -7.74474 17.0682
rtibia 90.2327
rfoot -11.0283 2.46517
rtoes -11.3857
lfemur -5.78667 -1.03645 -23.4626
ltibia 36.6078
lfoot -9.62448 -12.7935
ltoes -30.1809
63
root 0.195781 16.0293 -22.0938 23.0568 3.16866 5.4505
lowerback 15.7505 -3.21399 -4.75817
upperback 1.85146 -4.92446 1.45886
thorax -6.29409 -2.25984 5.25309
lowerneck -20.0836 -3.53573 -9.7129
upperneck 0.31987 -3.15122 11.1426
head 3.63208 -1.0112 4.79257
rclavicle 1.46604e-014 -1.09332e-014
rhumerus -73.1909 4.18477 -78.236
rradius 99.422
rwrist -11.5718
rhand -23.0479 24.7492
rfingers 7.12502
rthumb 3.39679 -5.20345
lclavicle 1.46604e-014 -1.09332e-014
lhumerus -22.5121 -13.6744 88.168
lradius 131.135
lwrist 25.0141
lhand -20.2462 9.13056
lfingers 7.12502
lthumb 6.10213 39.0227
rfemur -70.4046 -7.27074 16.8517
rtibia 87.5589
rfoot -11.5011 2.24215
rtoes -12.0612
lfemur -3.60685 -2.10567 -23.7861
ltibia 34.0128
lfoot -3.57022 -13.4472
ltoes -29.3446
